<svg xmlns="http://www.w3.org/2000/svg" xmlns:xlink="http://www.w3.org/1999/xlink" width="500" zoomAndPan="magnify" viewBox="0 0 375 374.999991" height="500" preserveAspectRatio="xMidYMid meet" version="1.0"><defs><clipPath id="5d261e76e5"><path d="M 69 87 L 300.652344 87 L 300.652344 244.214844 L 69 244.214844 Z M 69 87 " clip-rule="nonzero"/></clipPath><clipPath id="f85b28e5b4"><path d="M 61.402344 100 L 269 100 L 269 160 L 61.402344 160 Z M 61.402344 100 " clip-rule="nonzero"/></clipPath><clipPath id="6aa9edab04"><path d="M 124 47.714844 L 154 47.714844 L 154 116 L 124 116 Z M 124 47.714844 " clip-rule="nonzero"/></clipPath></defs><path fill="#99cc33" d="M 265.054688 109.648438 C 264.371094 110.085938 263.675781 110.523438 262.972656 110.964844 C 262.269531 111.402344 261.558594 111.839844 260.839844 112.273438 C 243.65625 122.617188 221.597656 131.855469 196.75 138.316406 C 193.648438 139.128906 190.566406 139.878906 187.5 140.566406 C 159.429688 145.066406 129.207031 147.519531 103.640625 140.667969 C 103.847656 139.523438 104.046875 138.402344 104.316406 137.269531 C 104.617188 135.917969 104.945312 134.5625 105.304688 133.210938 C 105.667969 131.867188 106.054688 130.546875 106.476562 129.234375 C 106.898438 127.917969 107.347656 126.628906 107.824219 125.339844 C 108.296875 124.054688 108.84375 122.800781 109.351562 121.542969 C 109.859375 120.28125 110.460938 119.058594 111.066406 117.832031 C 111.421875 117.050781 111.8125 116.304688 112.203125 115.558594 C 114.972656 110.320312 118.226562 105.402344 121.96875 100.804688 C 123.648438 98.738281 125.445312 96.746094 127.304688 94.816406 C 128.265625 93.859375 129.195312 92.933594 130.183594 92.003906 C 131.085938 91.191406 131.996094 90.378906 132.921875 89.566406 L 132.921875 110.519531 C 127.773438 110.96875 124.183594 111.957031 124.183594 113.109375 C 124.183594 114.679688 130.84375 115.953125 139.058594 115.953125 C 147.269531 115.953125 153.929688 114.675781 153.929688 113.109375 C 153.929688 111.542969 147.269531 110.269531 139.058594 110.269531 C 137.335938 110.269531 135.6875 110.328125 134.152344 110.425781 L 134.152344 88.546875 C 134.890625 87.941406 135.632812 87.328125 136.390625 86.753906 C 137.441406 85.914062 138.523438 85.132812 139.648438 84.359375 C 140.578125 83.703125 141.503906 83.074219 142.4375 82.476562 C 142.738281 82.265625 143.066406 82.070312 143.398438 81.847656 C 144.324219 81.246094 145.285156 80.679688 146.246094 80.144531 C 146.429688 80.019531 146.652344 79.902344 146.847656 79.78125 C 147.660156 79.332031 148.496094 78.855469 149.335938 78.433594 C 149.96875 78.078125 150.625 77.746094 151.285156 77.449219 C 151.691406 77.207031 152.15625 76.996094 152.601562 76.789062 C 153.503906 76.339844 154.433594 75.921875 155.367188 75.53125 L 156.621094 74.992188 C 157.28125 74.722656 157.945312 74.457031 158.605469 74.214844 C 159.351562 73.917969 160.132812 73.617188 160.914062 73.347656 L 162.246094 72.882812 C 163.144531 72.550781 164.042969 72.285156 164.972656 72.015625 C 165.394531 71.867188 165.824219 71.746094 166.261719 71.65625 C 167.089844 71.382812 167.929688 71.15625 168.78125 70.96875 C 169.441406 70.769531 170.109375 70.621094 170.792969 70.519531 C 171.550781 70.3125 172.320312 70.152344 173.101562 70.039062 C 175.019531 69.632812 176.9375 69.320312 178.917969 69.082031 C 179.847656 68.933594 180.777344 68.84375 181.707031 68.753906 C 183.054688 68.601562 184.40625 68.511719 185.773438 68.453125 C 187.273438 68.363281 188.773438 68.332031 190.300781 68.332031 C 191.714844 68.332031 193.121094 68.363281 194.5 68.453125 C 194.699219 68.449219 194.902344 68.457031 195.101562 68.480469 C 196.417969 68.542969 197.742188 68.632812 199.058594 68.753906 C 199.273438 68.78125 199.46875 68.78125 199.628906 68.808594 C 201.007812 68.960938 202.359375 69.140625 203.738281 69.351562 C 204.609375 69.472656 205.445312 69.617188 206.316406 69.753906 C 209.316406 70.308594 212.277344 71.015625 215.203125 71.875 C 218.128906 72.738281 221.003906 73.746094 223.824219 74.902344 C 226.644531 76.0625 229.398438 77.359375 232.082031 78.804688 C 234.765625 80.246094 237.371094 81.824219 239.890625 83.535156 C 242.414062 85.25 244.839844 87.085938 247.167969 89.050781 C 249.5 91.015625 251.722656 93.09375 253.835938 95.285156 C 255.949219 97.480469 257.945312 99.777344 259.820312 102.175781 C 261.695312 104.578125 263.4375 107.066406 265.054688 109.648438 Z M 265.054688 109.648438 " fill-opacity="1" fill-rule="nonzero"/><g clip-path="url(#5d261e76e5)"><path fill="#afaeae" d="M 148.277344 201.867188 C 146.859375 197.855469 148.515625 193.96875 152.832031 193.625 C 153.355469 193.609375 153.882812 193.625 154.40625 193.679688 C 160.453125 194.796875 163.289062 200.058594 163.355469 203.445312 C 163.40625 204.566406 163.167969 205.621094 162.632812 206.609375 C 162.3125 205.679688 161.878906 204.808594 161.328125 204 C 160.777344 203.1875 160.132812 202.460938 159.386719 201.820312 C 158.640625 201.183594 157.824219 200.652344 156.9375 200.234375 C 156.050781 199.8125 155.125 199.515625 154.15625 199.339844 C 153.632812 199.289062 153.109375 199.269531 152.582031 199.289062 C 150.523438 199.457031 149.082031 200.445312 148.277344 201.867188 Z M 251.078125 177.40625 C 251.890625 173.890625 253.847656 170.597656 256.773438 169.421875 C 260.058594 168.609375 261.738281 171.25 262.261719 174.335938 C 262.433594 173.613281 262.558594 172.875 262.632812 172.132812 C 262.996094 167.992188 261.503906 162.65625 257.003906 163.761719 C 252.46875 165.589844 250.238281 172.464844 251.078125 177.40625 Z M 175.925781 201.324219 C 180.660156 201.785156 183.3125 204.507812 184.332031 207.261719 C 184.738281 206.472656 184.976562 205.636719 185.046875 204.753906 C 185.34375 201.367188 182.78125 196.308594 176.160156 195.660156 C 169.761719 195.632812 167.039062 200.5625 168.753906 205.039062 C 169.890625 202.875 172.320312 201.304688 175.925781 201.324219 Z M 200.789062 201.570312 C 205.210938 201.640625 207.628906 203.714844 208.597656 206.097656 C 208.882812 205.519531 209.089844 204.917969 209.226562 204.292969 C 209.914062 200.867188 207.828125 196.007812 201.023438 195.90625 C 193.632812 196.476562 190.910156 202.429688 192.582031 206.640625 C 193.78125 204.0625 196.488281 201.902344 200.789062 201.554688 Z M 225.753906 194.054688 C 218.222656 195.324219 215.011719 202.269531 216.777344 206.289062 C 218.046875 203.300781 221.003906 200.480469 225.519531 199.714844 C 229.292969 199.429688 231.351562 200.910156 232.214844 202.886719 C 232.382812 202.515625 232.527344 202.140625 232.644531 201.753906 C 233.679688 198.257812 232.230469 193.5625 225.753906 194.054688 Z M 247.527344 190.1875 C 241.523438 192.007812 237.464844 199.792969 239.140625 203.898438 C 239.160156 203.941406 239.179688 203.980469 239.203125 204.019531 C 240.488281 200.535156 243.503906 197.003906 247.296875 195.851562 C 249.738281 195.402344 251.113281 196.257812 251.742188 197.648438 C 251.765625 197.597656 251.789062 197.539062 251.8125 197.480469 C 253.082031 193.878906 252.585938 189.242188 247.527344 190.1875 Z M 265.316406 146.464844 C 264.714844 143.25 262.589844 139.15625 259.761719 140.144531 C 258.5 140.859375 257.808594 142.40625 257.558594 144.234375 C 257.886719 143.527344 258.382812 142.96875 259.050781 142.558594 C 261.898438 141.582031 264 145.664062 264.609375 148.878906 C 264.890625 150.316406 264.929688 151.761719 264.730469 153.210938 C 265.515625 151.628906 265.824219 149.191406 265.316406 146.464844 Z M 236.332031 168.816406 C 231.726562 169.875 228.894531 173.898438 228.257812 177.949219 C 229.542969 175.046875 231.996094 172.566406 235.457031 171.765625 C 241.480469 171.070312 243.59375 176.539062 243.148438 180.644531 C 243.128906 180.847656 243.078125 181.050781 243.046875 181.230469 C 243.5625 180.105469 243.882812 178.925781 244.015625 177.695312 C 244.445312 173.585938 242.347656 168.117188 236.328125 168.816406 Z M 274.570312 128.976562 C 277.453125 137.800781 278.894531 146.855469 278.890625 156.136719 C 278.890625 204.78125 239.371094 244.21875 190.613281 244.21875 C 186.902344 244.222656 183.207031 243.992188 179.523438 243.53125 C 175.839844 243.070312 172.199219 242.375 168.605469 241.453125 C 165.007812 240.535156 161.488281 239.390625 158.035156 238.023438 C 154.585938 236.65625 151.234375 235.082031 147.984375 233.292969 C 144.734375 231.503906 141.609375 229.515625 138.609375 227.335938 C 135.613281 225.152344 132.761719 222.789062 130.0625 220.246094 C 127.363281 217.707031 124.835938 215.003906 122.476562 212.144531 C 120.121094 209.28125 117.953125 206.285156 115.976562 203.148438 C 117.941406 205.09375 128.539062 215.089844 129.207031 214.839844 C 129.746094 213.464844 127.175781 211.789062 126.953125 210.578125 C 126.667969 208.914062 128.804688 209.730469 129.359375 210.535156 C 130.171875 211.726562 130.832031 212.972656 131.800781 214.109375 C 133.625 216.277344 135.945312 218.597656 138.6875 219.554688 C 141.316406 220.464844 141.128906 218.199219 139.855469 215.703125 C 139.117188 214.261719 138.253906 212.78125 138.691406 211.097656 C 139.160156 209.28125 141.042969 208.933594 142.675781 208.96875 C 144.933594 209.019531 147.429688 209.597656 149.59375 210.1875 C 152.476562 211 155.652344 212.652344 158.664062 212.710938 C 162.160156 212.785156 165.339844 211.222656 168.871094 212.25 C 173.53125 213.601562 175.480469 217.121094 180.929688 215.46875 C 184.933594 214.25 186.734375 212.476562 191.097656 213.632812 C 196.300781 215.019531 198.339844 215.710938 203.558594 213.8125 C 207.628906 212.339844 211.695312 210.597656 215.898438 212.675781 C 220.371094 214.875 222.269531 213.21875 226.191406 210.644531 C 230.230469 207.976562 232.726562 209.160156 236.980469 210.164062 C 240.964844 211.105469 242.65625 207.679688 246.289062 206.441406 C 247.976562 205.871094 250.796875 206.167969 252.015625 204.703125 C 253.621094 202.789062 253.742188 197.035156 254.621094 194.511719 C 255.5 191.988281 256.167969 189.082031 257.898438 186.953125 C 259.703125 184.734375 262.554688 183.640625 263.863281 180.9375 C 266.105469 176.296875 263.695312 170.195312 264.011719 165.332031 C 264.386719 159.648438 270.328125 156.917969 270.179688 151.0625 C 270.054688 145.816406 266.441406 139.660156 266.972656 134.246094 C 248.636719 146.171875 223.921875 156.902344 195.84375 164.210938 C 160.597656 173.386719 127.371094 175.277344 103.410156 170.828125 C 86.773438 167.738281 74.617188 161.59375 69.375 152.710938 C 77.386719 158.210938 88.632812 162.046875 102.542969 163.984375 C 112.945312 165.441406 124.828125 165.851562 137.976562 165.117188 C 155.421875 164.140625 173.710938 161.191406 192.332031 156.34375 C 223.195312 148.308594 251.109375 135.972656 271.25 121.496094 C 271.871094 121.050781 272.472656 120.605469 273.085938 120.152344 C 287.515625 109.4375 296.648438 98.257812 300.035156 87.546875 C 302.945312 100.375 293.039062 115.230469 274.558594 128.976562 Z M 272.988281 148.484375 C 274.984375 149.40625 275.585938 143.828125 274.140625 137.835938 C 273.492188 135.132812 272.457031 132.589844 271.390625 131.273438 C 270.460938 131.921875 269.527344 132.570312 268.5625 133.210938 C 268.105469 138.273438 270.734375 147.441406 272.976562 148.484375 Z M 266.886719 195.375 C 267.457031 196.054688 270.222656 190.972656 272.175781 185.664062 C 273.421875 182.273438 273.894531 180.050781 273.914062 179.09375 C 273.949219 177.878906 273.414062 178.375 273.160156 178.617188 C 270.265625 181.984375 266.128906 194.519531 266.863281 195.375 Z M 277.242188 150.816406 C 277.101562 150.816406 277.066406 150.871094 276.929688 151.128906 C 275.878906 153.96875 274.9375 169.539062 276.144531 170.003906 C 276.84375 169.257812 277.535156 163.699219 277.746094 158.972656 C 277.871094 156.21875 277.898438 151.398438 277.242188 150.816406 Z M 267.886719 176.074219 C 270 178.511719 273.175781 172.875 273.675781 165.871094 C 273.964844 161.691406 273.121094 156.4375 270.347656 157.839844 C 266.535156 160.734375 265.394531 173.222656 267.875 176.074219 Z M 256.339844 200.476562 C 257.769531 203.121094 262.792969 198.277344 265.164062 191.953125 C 266.792969 187.65625 266.609375 183.726562 263.539062 184.871094 C 258.441406 187.589844 254.824219 197.6875 256.328125 200.476562 Z M 251.417969 215.761719 C 251.648438 216.757812 256.082031 212.425781 259.320312 208.023438 C 260.863281 205.925781 261.992188 204.015625 262.339844 202.917969 C 262.796875 201.496094 261.890625 202 261.503906 202.21875 C 257.851562 204.753906 251.140625 214.542969 251.417969 215.761719 Z M 193.167969 240.863281 C 193.675781 240.179688 192.355469 239.058594 189.179688 238.941406 C 186.015625 238.980469 185.554688 239.996094 185.644531 240.351562 C 185.988281 241.621094 192.300781 242.050781 193.167969 240.863281 Z M 203.386719 240.261719 C 203.769531 240.121094 204.117188 239.921875 204.425781 239.65625 C 204.929688 239.167969 204.753906 238.4375 202.113281 238.578125 C 198.734375 238.894531 196.445312 240.234375 196.113281 240.894531 C 195.527344 242.054688 201.816406 240.925781 203.386719 240.261719 Z M 210.4375 239.449219 C 211.039062 239.300781 211.789062 239.113281 212.691406 238.824219 C 214.726562 238.179688 215.652344 237.605469 215.851562 237.339844 C 216.199219 236.855469 214.910156 237.050781 214.488281 237.117188 C 210.796875 237.835938 204.8125 240.542969 204.777344 240.5625 C 206.484375 240.242188 208.746094 239.792969 210.4375 239.433594 Z M 239.726562 219.558594 C 240.40625 222.296875 246.789062 217.96875 250.183594 213.195312 C 250.460938 212.808594 250.804688 212.277344 251.042969 211.867188 C 252.359375 209.59375 253.074219 206.546875 249.636719 207.472656 C 244.320312 209.46875 239.097656 217.035156 239.722656 219.554688 Z M 232.222656 230.925781 L 232.261719 231.003906 C 233.078125 230.855469 237.519531 228.292969 241.085938 225.640625 C 243.359375 223.957031 245.710938 221.882812 245.492188 221.339844 C 245.300781 221.265625 245.191406 221.296875 244.679688 221.515625 C 241.140625 223.25 232.710938 230.210938 232.21875 230.9375 Z M 222.519531 221.847656 C 223.605469 226.195312 232.125 223.386719 235.738281 217.492188 C 237.472656 214.652344 237.546875 210.957031 232.261719 211.640625 C 226.261719 212.917969 221.6875 218.472656 222.519531 221.847656 Z M 222.027344 233.550781 C 221.980469 235.175781 228.386719 232.289062 232.066406 229.394531 C 233.015625 228.703125 233.832031 227.878906 234.507812 226.917969 C 234.894531 226.296875 235.511719 224.890625 232.808594 225.464844 C 227.746094 226.875 222.082031 232.015625 222.027344 233.535156 Z M 216.683594 228.328125 C 211.289062 229.171875 207.765625 232.691406 207.804688 234.652344 C 207.867188 237.742188 215.652344 235.667969 219.105469 232.289062 L 219.515625 231.882812 C 221.003906 230.148438 221.121094 227.9375 216.683594 228.3125 Z M 202.085938 223.171875 C 204.152344 228.210938 214.046875 226.378906 216.59375 220.484375 C 217.949219 217.347656 216.039062 214.0625 210.578125 214.230469 C 203.585938 214.988281 200.835938 220.109375 202.085938 223.15625 Z M 191.773438 234.726562 C 192.867188 238.417969 201.03125 237.90625 203.265625 234.007812 C 204.445312 231.941406 202.910156 229.714844 198.382812 229.707031 C 193.191406 230.023438 191.210938 232.808594 191.773438 234.707031 Z M 181.457031 223.191406 C 184.875 228.398438 194.503906 227.398438 195.570312 221.726562 C 196.074219 219.078125 194.023438 215.199219 187.902344 214.875 C 181.605469 215.03125 179.074219 219.578125 181.457031 223.175781 Z M 176.257812 234.46875 C 179.660156 237.96875 186.835938 237.867188 186.917969 234.316406 C 186.960938 232.578125 184.824219 229.9375 179.949219 229.519531 L 179.300781 229.519531 C 175.414062 229.5625 173.898438 232.027344 176.257812 234.453125 Z M 183.738281 240.675781 C 183.214844 240.199219 180.945312 238.753906 177.519531 238.367188 C 177.074219 238.332031 175.894531 238.257812 175.460938 238.617188 C 174.148438 239.765625 181.238281 241.398438 183.660156 241.269531 C 183.851562 241.238281 184.363281 241.210938 183.738281 240.660156 Z M 164.214844 222.792969 C 169.199219 227.414062 176.464844 226.511719 176.183594 221.296875 C 176.042969 218.65625 173.246094 214.597656 167.476562 213.832031 C 167.25 213.832031 166.9375 213.792969 166.707031 213.792969 C 161.207031 213.753906 159.828125 218.714844 164.195312 222.773438 Z M 150.011719 222.125 C 154.660156 224.734375 157.886719 223.34375 156.644531 219.265625 C 155.828125 216.578125 152.425781 212.253906 147.398438 211.058594 C 146.617188 210.886719 145.839844 210.894531 145.0625 211.089844 C 141.058594 212.234375 143.976562 218.730469 149.996094 222.109375 Z M 149.292969 230.625 C 149.179688 230.457031 149.003906 230.21875 146.371094 228.046875 C 141.964844 224.4375 138.726562 222.089844 136.738281 221.074219 C 136.171875 220.828125 136.074219 220.804688 135.875 220.855469 C 135.269531 222.035156 146.957031 230.167969 149.246094 230.691406 Z M 158.023438 231.292969 C 156.289062 229.4375 152.328125 226.273438 148.605469 225.179688 C 148.144531 225.082031 147.289062 224.898438 146.871094 225.179688 C 144.738281 226.617188 155.117188 233.511719 158.628906 233.804688 C 160.359375 233.929688 158.585938 231.910156 158.003906 231.277344 Z M 167.785156 235.421875 C 171.851562 236.792969 173.269531 235.484375 172.261719 233.429688 C 171.402344 231.644531 168.210938 228.796875 163.832031 228.054688 C 163.265625 228 162.203125 227.894531 161.421875 228.230469 C 158.6875 229.382812 162.417969 233.621094 167.773438 235.40625 Z M 176.164062 240.355469 C 175.054688 239.996094 175.054688 239.996094 174.261719 239.683594 C 167.789062 237.148438 167.789062 237.148438 166.074219 236.78125 C 165.324219 236.65625 164.96875 236.628906 164.851562 236.816406 C 164.945312 237.335938 167.359375 238.4375 171.628906 239.433594 L 173.507812 239.839844 C 174.28125 239.992188 175.355469 240.1875 176.152344 240.339844 Z M 176.164062 240.355469 " fill-opacity="1" fill-rule="nonzero"/></g><path fill="#ffffff" d="M 262.339844 202.902344 C 261.992188 203.996094 260.859375 205.910156 259.320312 208.007812 C 256.066406 212.40625 251.648438 216.742188 251.417969 215.746094 C 251.140625 214.527344 257.851562 204.753906 261.503906 202.203125 C 261.890625 201.984375 262.796875 201.480469 262.339844 202.902344 Z M 263.515625 184.886719 C 258.441406 187.589844 254.824219 197.6875 256.328125 200.476562 C 257.757812 203.121094 262.78125 198.277344 265.152344 191.953125 C 266.765625 187.671875 266.597656 183.742188 263.515625 184.886719 Z M 273.664062 165.871094 C 273.953125 161.691406 273.109375 156.4375 270.335938 157.839844 C 266.550781 160.734375 265.394531 173.222656 267.875 176.074219 C 269.984375 178.5 273.175781 172.875 273.664062 165.871094 Z M 216.683594 228.3125 C 211.289062 229.15625 207.765625 232.675781 207.804688 234.636719 C 207.867188 237.722656 215.652344 235.648438 219.105469 232.273438 L 219.515625 231.867188 C 221.003906 230.148438 221.121094 227.9375 216.683594 228.3125 Z M 232.261719 211.625 C 226.261719 212.917969 221.6875 218.472656 222.519531 221.847656 C 223.605469 226.195312 232.125 223.386719 235.738281 217.492188 C 237.472656 214.636719 237.546875 210.941406 232.261719 211.625 Z M 234.515625 226.902344 C 234.902344 226.28125 235.523438 224.875 232.816406 225.449219 C 227.746094 226.875 222.082031 232.015625 222.027344 233.535156 C 221.980469 235.160156 228.386719 232.273438 232.066406 229.378906 C 233.019531 228.6875 233.835938 227.863281 234.515625 226.902344 Z M 244.660156 221.527344 C 241.140625 223.25 232.710938 230.210938 232.21875 230.9375 L 232.257812 231.015625 C 233.074219 230.867188 237.515625 228.304688 241.082031 225.652344 C 243.355469 223.96875 245.707031 221.894531 245.488281 221.351562 C 245.296875 221.277344 245.1875 221.308594 244.660156 221.527344 Z M 273.132812 178.617188 C 270.285156 181.984375 266.140625 194.519531 266.871094 195.375 C 267.4375 196.054688 270.207031 190.972656 272.15625 185.664062 C 273.40625 182.273438 273.878906 180.050781 273.898438 179.09375 C 273.914062 177.886719 273.382812 178.375 273.125 178.617188 Z M 249.640625 207.46875 C 244.328125 209.46875 239.105469 217.035156 239.730469 219.554688 C 240.410156 222.292969 246.792969 217.964844 250.1875 213.191406 C 250.464844 212.804688 250.808594 212.273438 251.046875 211.863281 C 252.355469 209.589844 253.0625 206.542969 249.632812 207.46875 Z M 214.5 237.097656 C 210.804688 237.816406 204.820312 240.523438 204.785156 240.546875 C 206.492188 240.242188 208.753906 239.792969 210.445312 239.433594 C 211.046875 239.28125 211.796875 239.097656 212.699219 238.808594 C 214.734375 238.164062 215.660156 237.589844 215.859375 237.324219 C 216.199219 236.839844 214.910156 237.035156 214.488281 237.097656 Z M 112.1875 115.574219 C 114.957031 110.335938 118.210938 105.417969 121.949219 100.820312 C 118.179688 105.398438 114.925781 110.316406 112.1875 115.574219 Z M 271.378906 131.273438 C 270.449219 131.921875 269.515625 132.570312 268.550781 133.210938 C 268.105469 138.273438 270.734375 147.441406 272.976562 148.484375 C 274.972656 149.40625 275.574219 143.828125 274.128906 137.835938 C 273.480469 135.132812 272.441406 132.589844 271.378906 131.273438 Z M 137.988281 165.117188 C 155.433594 164.140625 173.722656 161.191406 192.34375 156.34375 C 223.207031 148.308594 251.121094 135.972656 271.261719 121.496094 C 270.449219 119.628906 269.578125 117.792969 268.652344 115.992188 C 267.996094 116.464844 267.320312 116.9375 266.640625 117.410156 C 266.082031 117.800781 265.507812 118.1875 264.929688 118.578125 C 246.273438 131.132812 219.875 142.992188 190.828125 150.554688 C 157.414062 159.261719 125.804688 161.390625 102.230469 157.828125 C 102.265625 159.898438 102.378906 161.949219 102.554688 163.984375 C 112.957031 165.429688 124.839844 165.835938 137.988281 165.117188 Z M 202.113281 238.585938 C 198.734375 238.902344 196.445312 240.242188 196.113281 240.902344 C 195.527344 242.0625 201.808594 240.921875 203.386719 240.269531 C 203.769531 240.128906 204.117188 239.929688 204.425781 239.664062 C 204.929688 239.167969 204.753906 238.445312 202.113281 238.578125 Z M 277.242188 150.816406 C 277.101562 150.816406 277.066406 150.871094 276.929688 151.128906 C 275.878906 153.96875 274.9375 169.539062 276.144531 170.003906 C 276.84375 169.257812 277.535156 163.699219 277.746094 158.972656 C 277.871094 156.21875 277.898438 151.398438 277.242188 150.816406 Z M 175.109375 242.859375 C 172.878906 242.46875 170.671875 241.996094 168.480469 241.4375 C 166.292969 240.875 164.125 240.234375 161.984375 239.507812 C 159.84375 238.785156 157.734375 237.976562 155.65625 237.089844 C 153.578125 236.203125 151.539062 235.238281 149.535156 234.191406 C 147.53125 233.148438 145.570312 232.03125 143.652344 230.835938 C 141.734375 229.640625 139.863281 228.375 138.046875 227.035156 C 136.226562 225.699219 134.460938 224.292969 132.746094 222.820312 C 131.035156 221.34375 129.382812 219.808594 127.789062 218.207031 C 126.199219 216.605469 124.667969 214.949219 123.203125 213.230469 C 121.738281 211.511719 120.339844 209.742188 119.011719 207.914062 C 117.683594 206.089844 116.429688 204.214844 115.242188 202.296875 C 114.058594 200.375 112.953125 198.410156 111.917969 196.402344 C 110.886719 194.394531 109.933594 192.351562 109.058594 190.273438 C 108.183594 188.191406 107.386719 186.082031 106.675781 183.941406 C 105.964844 181.800781 105.335938 179.636719 104.789062 177.445312 C 104.246094 175.257812 103.785156 173.050781 103.410156 170.828125 C 127.355469 175.292969 160.585938 173.386719 195.828125 164.210938 C 223.898438 156.902344 248.609375 146.171875 266.960938 134.246094 C 266.429688 139.660156 270.042969 145.816406 270.167969 151.0625 C 270.316406 156.917969 264.375 159.65625 263.996094 165.332031 C 263.683594 170.203125 266.09375 176.289062 263.851562 180.9375 C 262.542969 183.640625 259.691406 184.734375 257.886719 186.953125 C 256.15625 189.082031 255.492188 191.980469 254.609375 194.511719 C 253.726562 197.042969 253.609375 202.789062 252.003906 204.703125 C 250.785156 206.167969 247.964844 205.871094 246.277344 206.441406 C 242.644531 207.660156 240.953125 211.105469 236.96875 210.164062 C 232.714844 209.160156 230.21875 207.976562 226.175781 210.644531 C 222.253906 213.234375 220.351562 214.890625 215.886719 212.675781 C 211.671875 210.597656 207.609375 212.339844 203.546875 213.8125 C 198.328125 215.710938 196.289062 215.03125 191.085938 213.632812 C 186.726562 212.476562 184.921875 214.261719 180.917969 215.46875 C 175.46875 217.09375 173.519531 213.601562 168.859375 212.25 C 165.328125 211.222656 162.148438 212.785156 158.652344 212.710938 C 155.640625 212.652344 152.464844 210.988281 149.582031 210.1875 C 147.394531 209.582031 144.902344 209.003906 142.664062 208.96875 C 141.039062 208.933594 139.144531 209.28125 138.679688 211.097656 C 138.242188 212.78125 139.105469 214.261719 139.84375 215.703125 C 141.125 218.199219 141.300781 220.464844 138.675781 219.554688 C 135.933594 218.597656 133.613281 216.277344 131.789062 214.109375 C 130.835938 212.980469 130.160156 211.726562 129.347656 210.535156 C 128.792969 209.726562 126.65625 208.914062 126.941406 210.578125 C 127.148438 211.796875 129.734375 213.464844 129.195312 214.839844 C 128.527344 215.089844 117.925781 205.097656 115.960938 203.148438 C 117.597656 205.730469 119.359375 208.222656 121.253906 210.621094 C 123.148438 213.019531 125.160156 215.3125 127.292969 217.503906 C 129.421875 219.695312 131.664062 221.769531 134.011719 223.726562 C 136.359375 225.683594 138.804688 227.515625 141.34375 229.21875 C 143.882812 230.925781 146.503906 232.492188 149.203125 233.925781 C 151.90625 235.359375 154.675781 236.648438 157.511719 237.796875 C 160.351562 238.941406 163.238281 239.9375 166.179688 240.78125 C 169.117188 241.628906 172.09375 242.320312 175.109375 242.859375 Z M 257.554688 144.222656 C 257.882812 143.515625 258.378906 142.957031 259.046875 142.546875 C 261.894531 141.570312 263.996094 145.652344 264.605469 148.867188 C 264.886719 150.304688 264.925781 151.746094 264.726562 153.199219 C 265.515625 151.597656 265.824219 149.164062 265.3125 146.453125 C 264.710938 143.238281 262.585938 139.144531 259.757812 140.132812 C 258.496094 140.859375 257.804688 142.40625 257.554688 144.234375 Z M 251.078125 177.40625 C 251.890625 173.890625 253.847656 170.597656 256.773438 169.421875 C 260.058594 168.609375 261.738281 171.25 262.261719 174.335938 C 262.433594 173.613281 262.558594 172.875 262.632812 172.132812 C 262.996094 167.992188 261.503906 162.65625 257.003906 163.761719 C 252.46875 165.589844 250.238281 172.464844 251.078125 177.40625 Z M 247.527344 190.1875 C 241.523438 192.007812 237.464844 199.792969 239.140625 203.898438 C 239.160156 203.941406 239.179688 203.980469 239.203125 204.019531 C 240.488281 200.535156 243.503906 197.003906 247.296875 195.851562 C 249.738281 195.402344 251.113281 196.257812 251.742188 197.648438 C 251.765625 197.597656 251.789062 197.539062 251.8125 197.480469 C 253.082031 193.878906 252.585938 189.242188 247.527344 190.1875 Z M 228.253906 177.953125 C 229.539062 175.050781 231.992188 172.570312 235.453125 171.769531 C 241.476562 171.074219 243.589844 176.542969 243.144531 180.648438 C 243.125 180.851562 243.074219 181.054688 243.042969 181.234375 C 243.558594 180.109375 243.878906 178.929688 244.011719 177.699219 C 244.445312 173.589844 242.347656 168.121094 236.328125 168.820312 C 231.722656 169.894531 228.890625 173.898438 228.253906 177.949219 Z M 216.777344 206.296875 C 218.046875 203.304688 221.003906 200.488281 225.519531 199.71875 C 229.292969 199.433594 231.351562 200.914062 232.214844 202.890625 C 232.382812 202.519531 232.527344 202.144531 232.644531 201.757812 C 233.679688 198.261719 232.238281 193.566406 225.753906 194.042969 C 218.222656 195.324219 215.011719 202.269531 216.777344 206.289062 Z M 192.582031 206.644531 C 193.78125 204.066406 196.488281 201.90625 200.789062 201.574219 C 205.210938 201.644531 207.628906 203.71875 208.597656 206.101562 C 208.882812 205.523438 209.089844 204.925781 209.226562 204.296875 C 209.914062 200.871094 207.828125 196.011719 201.023438 195.910156 C 193.632812 196.476562 190.910156 202.429688 192.582031 206.640625 Z M 168.753906 205.042969 C 169.890625 202.878906 172.320312 201.308594 175.925781 201.328125 C 180.660156 201.789062 183.3125 204.511719 184.332031 207.265625 C 184.738281 206.476562 184.976562 205.640625 185.046875 204.757812 C 185.34375 201.371094 182.78125 196.3125 176.160156 195.664062 C 169.761719 195.632812 167.039062 200.5625 168.753906 205.039062 Z M 148.277344 201.871094 C 149.09375 200.449219 150.523438 199.460938 152.597656 199.292969 C 153.125 199.273438 153.648438 199.292969 154.171875 199.347656 C 155.140625 199.519531 156.066406 199.816406 156.953125 200.238281 C 157.839844 200.65625 158.65625 201.1875 159.402344 201.828125 C 160.148438 202.464844 160.796875 203.191406 161.347656 204.003906 C 161.894531 204.8125 162.332031 205.683594 162.648438 206.613281 C 163.183594 205.625 163.425781 204.570312 163.371094 203.449219 C 163.289062 200.0625 160.453125 194.800781 154.421875 193.683594 C 153.898438 193.628906 153.375 193.613281 152.847656 193.628906 C 148.515625 193.96875 146.859375 197.855469 148.277344 201.867188 Z M 216.59375 220.46875 C 217.949219 217.332031 216.039062 214.046875 210.578125 214.214844 C 203.585938 214.988281 200.835938 220.109375 202.085938 223.144531 C 204.152344 228.195312 214.058594 226.363281 216.59375 220.46875 Z M 163.835938 228.039062 C 163.269531 227.984375 162.207031 227.878906 161.425781 228.214844 C 158.6875 229.382812 162.417969 233.613281 167.773438 235.40625 C 171.839844 236.777344 173.257812 235.46875 172.246094 233.414062 C 171.40625 231.628906 168.214844 228.78125 163.835938 228.039062 Z M 158.003906 231.285156 C 156.273438 229.425781 152.308594 226.265625 148.589844 225.167969 C 148.128906 225.074219 147.273438 224.890625 146.855469 225.167969 C 144.722656 226.609375 155.101562 233.503906 158.613281 233.796875 C 160.359375 233.929688 158.585938 231.910156 158.003906 231.277344 Z M 189.179688 238.949219 C 186.015625 238.988281 185.554688 240.003906 185.644531 240.359375 C 185.96875 241.628906 192.300781 242.058594 193.167969 240.871094 C 193.675781 240.179688 192.339844 239.058594 189.179688 238.941406 Z M 135.859375 220.847656 C 135.253906 222.027344 146.941406 230.160156 149.230469 230.683594 L 149.277344 230.617188 C 149.160156 230.449219 148.988281 230.210938 146.355469 228.039062 C 141.949219 224.429688 138.710938 222.082031 136.722656 221.066406 C 136.15625 220.808594 136.058594 220.789062 135.859375 220.839844 Z M 183.738281 240.667969 C 183.214844 240.191406 180.945312 238.746094 177.519531 238.359375 C 177.074219 238.324219 175.894531 238.246094 175.460938 238.609375 C 174.148438 239.757812 181.238281 241.390625 183.660156 241.261719 C 183.851562 241.238281 184.363281 241.210938 183.738281 240.660156 Z M 166.054688 236.765625 C 165.308594 236.640625 164.953125 236.613281 164.835938 236.800781 C 164.929688 237.320312 167.339844 238.421875 171.613281 239.417969 L 173.492188 239.824219 C 174.304688 239.984375 175.363281 240.179688 176.160156 240.332031 C 175.050781 239.972656 175.050781 239.972656 174.257812 239.660156 C 167.777344 237.132812 167.777344 237.132812 166.054688 236.765625 Z M 203.261719 233.988281 C 204.441406 231.925781 202.902344 229.699219 198.378906 229.691406 C 193.203125 230.023438 191.226562 232.816406 191.785156 234.707031 C 192.867188 238.402344 201.042969 237.890625 203.265625 233.988281 Z M 149.972656 222.109375 C 154.621094 224.71875 157.847656 223.328125 156.601562 219.246094 C 155.789062 216.558594 152.382812 212.238281 147.359375 211.042969 C 146.578125 210.867188 145.796875 210.878906 145.019531 211.074219 C 141.058594 212.234375 143.976562 218.730469 149.996094 222.109375 Z M 195.53125 221.703125 C 196.039062 219.050781 193.988281 215.175781 187.863281 214.851562 C 181.566406 215.023438 179.054688 219.566406 181.421875 223.167969 C 184.875 228.378906 194.503906 227.382812 195.570312 221.710938 Z M 186.878906 234.285156 C 186.925781 232.550781 184.789062 229.910156 179.910156 229.492188 L 179.265625 229.492188 C 175.367188 229.570312 173.863281 232.027344 176.222656 234.453125 C 179.660156 237.953125 186.835938 237.851562 186.917969 234.296875 Z M 176.167969 221.28125 C 176.027344 218.636719 173.226562 214.578125 167.460938 213.816406 C 167.230469 213.816406 166.921875 213.777344 166.691406 213.777344 C 161.207031 213.753906 159.828125 218.714844 164.195312 222.773438 C 169.183594 227.398438 176.449219 226.496094 176.167969 221.28125 Z M 103.128906 143.945312 C 124.597656 148.785156 154.839844 147.945312 187.480469 140.566406 C 159.414062 145.066406 129.191406 147.519531 103.625 140.667969 C 100.164062 139.746094 96.765625 138.628906 93.429688 137.324219 L 91.285156 140.347656 C 95.125 141.855469 99.054688 143.054688 103.082031 143.945312 Z M 103.128906 143.945312 " fill-opacity="1" fill-rule="nonzero"/><g clip-path="url(#f85b28e5b4)"><path fill="#6b9812" d="M 268.652344 115.992188 C 267.996094 116.464844 267.320312 116.9375 266.640625 117.410156 C 266.082031 117.800781 265.507812 118.1875 264.929688 118.578125 C 246.273438 131.132812 219.875 142.992188 190.828125 150.554688 C 157.414062 159.261719 125.804688 161.390625 102.230469 157.828125 C 85.703125 155.3125 73.105469 149.988281 66.539062 142.117188 C 64.453125 139.683594 62.992188 136.921875 62.160156 133.828125 C 59.472656 123.589844 65.128906 112.042969 76.828125 100.730469 C 71.945312 108.121094 70.019531 115.390625 71.757812 122.066406 C 72.035156 123.035156 72.375 123.980469 72.777344 124.90625 C 75.625 131.472656 82.09375 136.648438 91.285156 140.332031 C 95.125 141.839844 99.054688 143.039062 103.082031 143.925781 L 103.140625 143.925781 C 124.609375 148.769531 154.851562 147.929688 187.496094 140.550781 C 190.554688 139.855469 193.640625 139.109375 196.746094 138.300781 C 221.59375 131.839844 243.652344 122.601562 260.835938 112.257812 C 261.5625 111.824219 262.277344 111.386719 262.984375 110.945312 C 263.691406 110.507812 264.386719 110.070312 265.066406 109.632812 C 266.085938 111.253906 267.078125 112.953125 267.976562 114.65625 C 268.226562 115.089844 268.449219 115.535156 268.652344 115.992188 Z M 268.652344 115.992188 " fill-opacity="1" fill-rule="nonzero"/></g><path fill="#ff3131" d="M 134.382812 66.707031 C 135.78125 64.636719 135.78125 53.046875 134.382812 50.976562 L 155.941406 58.839844 Z M 134.382812 66.707031 " fill-opacity="1" fill-rule="nonzero"/><g clip-path="url(#6aa9edab04)"><path fill="#272727" d="M 153.898438 113.125 C 153.898438 114.699219 147.238281 115.96875 139.023438 115.96875 C 130.8125 115.96875 124.15625 114.691406 124.15625 113.125 C 124.15625 111.972656 127.742188 110.984375 132.894531 110.539062 L 132.894531 50.4375 C 132.695312 50.34375 132.527344 50.214844 132.386719 50.042969 C 132.25 49.875 132.15625 49.683594 132.105469 49.46875 C 132.054688 49.257812 132.054688 49.042969 132.101562 48.828125 C 132.148438 48.617188 132.242188 48.421875 132.378906 48.25 C 132.515625 48.082031 132.679688 47.945312 132.878906 47.851562 C 133.074219 47.757812 133.285156 47.707031 133.503906 47.707031 C 133.722656 47.707031 133.929688 47.757812 134.128906 47.851562 C 134.328125 47.945312 134.492188 48.082031 134.628906 48.25 C 134.765625 48.421875 134.859375 48.617188 134.90625 48.828125 C 134.953125 49.042969 134.953125 49.257812 134.902344 49.46875 C 134.851562 49.683594 134.757812 49.875 134.621094 50.042969 C 134.480469 50.214844 134.3125 50.34375 134.113281 50.4375 L 134.113281 110.445312 C 135.652344 110.34375 137.300781 110.285156 139.019531 110.285156 C 147.238281 110.285156 153.898438 111.554688 153.898438 113.125 Z M 153.898438 113.125 " fill-opacity="1" fill-rule="nonzero"/></g></svg>